<svg xmlns="http://www.w3.org/2000/svg" viewBox="0 0 333334 296081" shape-rendering="geometricPrecision" text-rendering="geometricPrecision" image-rendering="optimizeQuality" fill-rule="evenodd" clip-rule="evenodd"><path d="M163070 98402c-3206 1819-7280 695-9100-2510-1819-3206-695-7280 2510-9100 6646-3768 12672-7811 17779-12260 4868-4241 8826-8804 11578-13792 670-1215 1261-2419 1769-3604 3256-7592 4013-15795 2056-23105-1891-7063-6387-13330-13689-17361-984-543-1985-1035-2998-1469-2694-1156-5268-1764-7726-1848-2441-84-4843 326-7206 1207-5472 2038-9708 5630-12373 9787-1517 2366-2502 4902-2885 7407-360 2356-196 4638 555 6653 850 2283 2505 4370 5065 6012 1517 972 3533 1449 6075 1405 3143-55 6979-897 11542-2566 3466-1256 7294 535 8550 4000 1256 3466-535 7294-4000 8550-5932 2170-11216 3269-15883 3350-5267 93-9754-1096-13501-3496-5121-3283-8511-7673-10347-12601-1586-4257-1974-8806-1287-13295 663-4340 2327-8666 4872-12637 4120-6427 10617-11960 18963-15069 4005-1493 8098-2187 12278-2044 4165 143 8344 1094 12537 2893 1497 642 2897 1325 4200 2044 10753 5935 17380 15186 20174 25624 2729 10191 1739 21475-2683 31786-713 1663-1495 3268-2344 4807-3577 6482-8525 12242-14507 17454-5743 5003-12513 9546-19975 13776zm-49004 116034c-2241-2356-2148-6083 207-8324 2356-2241 6083-2148 8324 207 16070 16884 31893 24187 47510 23630 15820-565 31916-9124 48225-23930 2407-2190 6134-2015 8324 392s2015 6134-392 8324c-18347 16655-36908 26301-55742 26973-19037 680-37871-7747-56456-27273zm8690-82184c9670 0 17509 7839 17509 17509s-7839 17509-17509 17509-17509-7839-17509-17509 7839-17509 17509-17509zm94646 0c9670 0 17509 7839 17509 17509s-7840 17509-17509 17509c-9670 0-17509-7839-17509-17509s7839-17509 17509-17509zm2459-51413c-3270-1455-4778-5369-3366-8741s5208-4926 8479-3470c16243 7260 30590 17438 42194 29771 10087 10721 18126 23077 23571 36575l444-99c2370-514 4778-784 7193-784 9636 0 18377 4046 24718 10588 6326 6527 10239 15533 10239 25472s-3913 18946-10239 25472c-6341 6542-15082 10589-24718 10589-1252 0-2500-70-3736-207-7104 25207-22995 47194-44538 63132-22759 16838-51821 26945-83436 26945s-60677-10107-83436-26945c-21543-15938-37434-37926-44538-63132-1236 137-2483 207-3736 207-9636 0-18377-4047-24718-10589C3912 189097-1 180090-1 170151s3913-18945 10239-25472c6341-6542 15082-10588 24718-10588 2415 0 4823 270 7193 784l444 99c5445-13498 13484-25854 23571-36576 11604-12333 25951-22510 42194-29770 3270-1456 7067 98 8479 3470s-95 7285-3366 8741c-14638 6543-27574 15722-38044 26848-10201 10842-18031 23528-22769 37409-80 286-179 570-299 850-1439 3372-5258 4902-8529 3418-1400-637-2846-1125-4315-1444-1422-308-2946-470-4561-470-6092 0-11591 2531-15556 6622-3980 4106-6442 9791-6442 16079s2462 11972 6442 16079c3965 4091 9464 6622 15556 6622 1148 0 2258-86 3324-252 1162-181 2242-433 3233-751v1c157-50 317-93 480-131 3480-807 6937 1448 7719 5036 5380 24592 20250 46185 41059 61580 20600 15240 47026 24388 75894 24388 28867 0 55294-9148 75894-24388 20789-15380 35650-36946 41043-61508 39-189 86-379 143-568 1048-3516 4663-5490 8073-4409 991 318 2071 570 3233 751 1066 166 2176 252 3324 252 6092 0 11591-2531 15556-6622 3980-4106 6443-9791 6443-16079s-2462-11972-6443-16079c-3965-4091-9464-6622-15556-6622-1614 0-3139 162-4561 470-1469 319-2915 806-4315 1444l-4-10c-155 70-314 135-476 193-3369 1210-7052-624-8226-4096-4726-14019-12602-26829-22890-37763-10469-11127-23406-20306-38043-26849z" fill-rule="nonzero"/></svg>