<svg xmlns="http://www.w3.org/2000/svg" viewBox="0 0 333334 227324" shape-rendering="geometricPrecision" text-rendering="geometricPrecision" image-rendering="optimizeQuality" fill-rule="evenodd" clip-rule="evenodd"><path d="M150738 148439zM51228 88822c4263 0 7718 3454 7718 7717 0 4262-3455 7717-7718 7717-4261 0-7717-3456-7717-7717 0-4263 3455-7717 7717-7717zm9426 49154c-1652-1148-2061-3420-912-5072 1148-1652 3420-2060 5072-911 3707 2578 7342 3855 10899 3848 3565-6 7206-1297 10913-3848 1652-1141 3917-726 5058 926s726 3917-926 5057c-4944 3401-9960 5122-15045 5131-5093 9-10115-1693-15059-5131zm41226-49154c4263 0 7718 3454 7718 7717 0 4262-3455 7717-7718 7717-4262 0-7717-3456-7717-7717 0-4263 3455-7717 7717-7717zM3203 227324c6189-22265 14341-29009 30921-42714 2513-2078 5224-4319 7830-6526 52-44 104-86 159-126 580-754 977-1257 1354-1737 1935-2459 3537-4496 4824-7206-8171-4374-15778-10921-22276-19782-4870 1219-9006 2302-12463 3207-3975 1041-7093 1857-9121 2311-283 63-579 94-882 87-2007-47-3594-1713-3548-3719l2082-87876c-1-132 4-265 18-398 520-5207 1695-10224 3460-15066 1766-4844 4103-9493 6944-13966 7709-12130 17321-20761 28630-26280C52367 2051 65223-317 79506 35c12273 304 24163 3347 34740 9413 9882 5667 18610 13959 25426 25100 2517 4114 4684 8438 6514 12961 1799 4448 3265 9070 4407 13856 98 328 150 676 150 1036l-7 86039c-1 1144-539 2269-1546 2977-1644 1156-3915 761-5071-883-1650-2343-3781-4314-6306-5956-1909-1240-4055-2302-6401-3202-7543 12270-17421 21445-28339 27219 985 2840 2349 4996 4038 7664l730 1154c5748 2601 11359 5926 16661 10817 5493 5069 10604 11770 15110 21019 2888 5927 5078 11963 6917 18076h-7633c-1606-5074-3482-10053-5837-14885-4082-8376-8634-14377-13486-18853-4044-3731-8338-6442-12763-8609-2782 3468-6024 6374-9565 8693-6778 4439-14673 6732-22558 6753-7903 19-15788-2248-22524-6929-1293-899-2544-1887-3744-2963-1614-1365-3154-2866-4602-4501-1833 1533-3481 2897-5049 4193-14777 12216-22334 18467-27958 37101H3203zm90804-66506c828-372 1666-764 2517-1176 107-51 217-97 326-137 12398-6202 23339-17627 30234-33349 2425-5531 3533-10556 4004-15561 1454-15434 113-36289 113-52303-12670 1954-17952-6522-20283-19163-25883 23603-56039 28801-89824 18364 0 15850-1265 35748-20 51079 375 4632 1279 9314 3261 14506 14634 38334 44637 48480 69674 37739zm-39062 11241c-1547 3314-3443 5730-5733 8641 1322 1721 2767 3259 4311 4616 275 226 553 448 832 663 5977 4617 12984 7007 19990 7112 6999 106 14026-2066 20053-6567 2373-1772 4585-3895 6573-6367l-16-25c-1869-2951-3405-5378-4561-8477-13438 5235-27984 5545-41449 404zM4430 154750zm321654 72573c-682-2674-1482-5061-2387-7194-5174-12199-18078-17758-30741-23214-2143-922-4280-1844-6521-2867-286 363-578 718-877 1067-1736 2132-3773 4026-6041 5667-6297 4556-14418 7172-22787 7581-8341 409-16977-1368-24347-5592-3666-2102-7021-4806-9875-8143-2026 968-4118 1922-6256 2896-12166 5547-25889 11805-30906 22246-1106 2302-1985 4822-2645 7552h-7229c67-320 136-637 207-951 789-3461 1889-6680 3311-9641 6130-12757 21080-19574 34333-25617 2944-1341 5802-2645 8364-3922 1752-2297 3183-4774 4297-7428 953-2271 1666-4667 2138-7185-2678-1599-5247-3471-7678-5627-9941-8819-16891-16015-21368-24341-4544-8450-6450-17828-6202-30860l716-37723c7-404 80-789 210-1147l-8786-2769c-3392-74062 90671-79005 130124-31842 9532 11395 9917 17561 9691 32421-74 4833-817 9048-3050 10637-1023 727-2257 1013-3683 891v32269c0 17878-6389 32808-16204 43871-5533 6238-12146 11237-19311 14833 428 2300 1021 4494 1775 6583 900 2496 2052 4877 3446 7144 2417 1122 5176 2311 7945 3504 13942 6006 28147 12128 34444 26971 1232 2904 2288 6194 3141 9931h-7248zm-84749-49219c-2267-593-4498-1339-6681-2243-541 2299-1256 4513-2148 6639-1124 2680-2538 5230-4242 7648 1880 2085 4012 3872 6319 5361 6236 4027 13755 5925 21141 5743 7348-181 14534-2425 20153-6677 1494-1130 2874-2403 4116-3817 370-450 723-914 1056-1390-1300-2278-2410-4683-3325-7217-697-1931-1275-3922-1731-5976-7194 2572-14466 3852-21603 3747-4428-66-8796-664-13054-1817zm-7419-10450c2333 1227 4723 2233 7160 3023l96 30c4499 1391 9192 2064 13922 2064 7572 0 15237-1718 22363-4958 7147-3250 13743-8024 19156-14125 8726-9838 14406-23170 14406-39202V81809h10c-81-2245-406-4321-1015-6190-587-1797-1435-3389-2583-4739-4329-5082-8443-4875-14299-4578-529 26-1047 53-1802 86-23176 1019-38373 994-50688-80-11364-991-20284-2856-30667-5597-972 2299-2122 4545-3452 6738-1697 2795-3667 5471-5913 8022l-691 36389c-223 11742 1427 20070 5372 27405 4012 7458 10489 14130 19820 22407 2463 2185 5097 4031 7857 5553 341 96 658 242 946 428zm5690-21551c-1633-1060-2097-3245-1036-4878 1060-1633 3244-2098 4878-1037 4023 2617 7882 4028 11552 4077 3555 48 7076-1207 10557-3911 1541-1197 3763-919 4960 622 1198 1541 920 3763-621 4960-4791 3720-9791 5444-14979 5376-5070-69-10176-1871-15311-5210zm-13169-44245c4213 0 7628 3415 7628 7627 0 4213-3415 7628-7628 7628-4212 0-7627-3415-7627-7628 0-4212 3415-7627 7627-7627zm57539 0c4212 0 7627 3415 7627 7627 0 4213-3415 7628-7627 7628-4213 0-7627-3415-7627-7628 0-4212 3414-7627 7627-7627z" fill-rule="nonzero"/>
  <style>
    svg {
    fill: grey;
    }
  </style>

</svg>
