<svg xmlns="http://www.w3.org/2000/svg" viewBox="0 0 3333 3333" shape-rendering="geometricPrecision" text-rendering="geometricPrecision" image-rendering="optimizeQuality" fill-rule="evenodd" clip-rule="evenodd"><path d="M593 0h2147c326 0 593 267 593 593v2147c0 326-267 593-593 593H593c-326 0-593-267-593-593V593C0 267 267 0 593 0zm564 1505c143 259 331 499 678 675 52 27 99-2 140-42 60-60 144-230 247-182l380 218c77 52 54 175 1 269-75 132-226 176-369 197-220 32-416-41-652-188-57-35-119-73-180-119-387-292-787-820-712-1289 33-208 170-379 439-355l243 411c50 62 13 119-62 174-71 59-199 121-153 231z"/></svg>